<svg xmlns="http://www.w3.org/2000/svg" viewBox="0 0 400 70">
  <style>
    rect { fill: #1a1a1a; }
    @media (prefers-color-scheme: dark) { rect { fill: #e0e0e0; } }
  </style>
  <!-- J -->
  <rect x="54" y="4" width="7" height="7"/><rect x="62" y="4" width="7" height="7"/><rect x="70" y="4" width="7" height="7"/>
  <rect x="62" y="13" width="7" height="7"/>
  <rect x="62" y="22" width="7" height="7"/>
  <rect x="62" y="31" width="7" height="7"/>
  <rect x="46" y="40" width="7" height="7"/><rect x="62" y="40" width="7" height="7"/>
  <rect x="46" y="49" width="7" height="7"/><rect x="54" y="49" width="7" height="7"/><rect x="62" y="49" width="7" height="7"/>
  <!-- C -->
  <rect x="88" y="4" width="7" height="7"/><rect x="96" y="4" width="7" height="7"/><rect x="104" y="4" width="7" height="7"/>
  <rect x="80" y="13" width="7" height="7"/><rect x="112" y="13" width="7" height="7"/>
  <rect x="80" y="22" width="7" height="7"/>
  <rect x="80" y="31" width="7" height="7"/>
  <rect x="80" y="40" width="7" height="7"/><rect x="112" y="40" width="7" height="7"/>
  <rect x="88" y="49" width="7" height="7"/><rect x="96" y="49" width="7" height="7"/><rect x="104" y="49" width="7" height="7"/>
  <!-- R -->
  <rect x="138" y="4" width="7" height="7"/><rect x="146" y="4" width="7" height="7"/><rect x="154" y="4" width="7" height="7"/>
  <rect x="138" y="13" width="7" height="7"/><rect x="162" y="13" width="7" height="7"/>
  <rect x="138" y="22" width="7" height="7"/><rect x="162" y="22" width="7" height="7"/>
  <rect x="138" y="31" width="7" height="7"/><rect x="146" y="31" width="7" height="7"/><rect x="154" y="31" width="7" height="7"/>
  <rect x="138" y="40" width="7" height="7"/><rect x="154" y="40" width="7" height="7"/>
  <rect x="138" y="49" width="7" height="7"/><rect x="162" y="49" width="7" height="7"/>
  <!-- E -->
  <rect x="180" y="4" width="7" height="7"/><rect x="188" y="4" width="7" height="7"/><rect x="196" y="4" width="7" height="7"/><rect x="204" y="4" width="7" height="7"/>
  <rect x="180" y="13" width="7" height="7"/>
  <rect x="180" y="22" width="7" height="7"/><rect x="188" y="22" width="7" height="7"/><rect x="196" y="22" width="7" height="7"/>
  <rect x="180" y="31" width="7" height="7"/>
  <rect x="180" y="40" width="7" height="7"/>
  <rect x="180" y="49" width="7" height="7"/><rect x="188" y="49" width="7" height="7"/><rect x="196" y="49" width="7" height="7"/><rect x="204" y="49" width="7" height="7"/>
  <!-- Y -->
  <rect x="222" y="4" width="7" height="7"/><rect x="246" y="4" width="7" height="7"/>
  <rect x="222" y="13" width="7" height="7"/><rect x="246" y="13" width="7" height="7"/>
  <rect x="230" y="22" width="7" height="7"/><rect x="238" y="22" width="7" height="7"/>
  <rect x="234" y="31" width="7" height="7"/>
  <rect x="234" y="40" width="7" height="7"/>
  <rect x="234" y="49" width="7" height="7"/>
  <!-- E -->
  <rect x="264" y="4" width="7" height="7"/><rect x="272" y="4" width="7" height="7"/><rect x="280" y="4" width="7" height="7"/><rect x="288" y="4" width="7" height="7"/>
  <rect x="264" y="13" width="7" height="7"/>
  <rect x="264" y="22" width="7" height="7"/><rect x="272" y="22" width="7" height="7"/><rect x="280" y="22" width="7" height="7"/>
  <rect x="264" y="31" width="7" height="7"/>
  <rect x="264" y="40" width="7" height="7"/>
  <rect x="264" y="49" width="7" height="7"/><rect x="272" y="49" width="7" height="7"/><rect x="280" y="49" width="7" height="7"/><rect x="288" y="49" width="7" height="7"/>
  <!-- S -->
  <rect x="306" y="4" width="7" height="7"/><rect x="314" y="4" width="7" height="7"/><rect x="322" y="4" width="7" height="7"/>
  <rect x="298" y="13" width="7" height="7"/>
  <rect x="298" y="22" width="7" height="7"/><rect x="306" y="22" width="7" height="7"/><rect x="314" y="22" width="7" height="7"/>
  <rect x="322" y="31" width="7" height="7"/>
  <rect x="322" y="40" width="7" height="7"/>
  <rect x="298" y="49" width="7" height="7"/><rect x="306" y="49" width="7" height="7"/><rect x="314" y="49" width="7" height="7"/>
</svg>
